RBDS03runT45_grf
version=1
nRows=30
nColumns=19
inDegrees=no
endheader
time	ground_force_r_vx	ground_force_r_vy	ground_force_r_vz	ground_force_r_px	ground_force_r_py	ground_force_r_pz	ground_force_r_mx	ground_force_r_my	ground_force_r_mz	ground_force_l_vx	ground_force_l_vy	ground_force_l_vz	ground_force_l_px	ground_force_l_py	ground_force_l_pz	ground_force_l_mx	ground_force_l_my	ground_force_l_mz
     22.49800000	   -287.57380493	   1555.93296415	    -13.06185714	      2.50069072	      0.00000000	      1.06950861	     -0.00000000	     16.28186504	     -0.00000000	      0.00000000	      0.00000000	      0.00000000	      0.00000000	      0.00000000	      0.00000000	      0.00000000	      0.00000000	      0.00000000
     22.49900000	   -286.00918118	   1568.27702784	    -13.04294635	      2.49779635	      0.00000000	      1.06957379	     -0.00000000	     16.43685830	     -0.00000000	      0.00000000	      0.00000000	      0.00000000	      0.00000000	      0.00000000	      0.00000000	      0.00000000	      0.00000000	      0.00000000
     22.50000000	   -284.44455742	   1580.62109152	    -13.02403557	      2.49490198	      0.00000000	      1.06963897	     -0.00000000	     16.59185155	     -0.00000000	      0.00000000	      0.00000000	      0.00000000	      0.00000000	      0.00000000	      0.00000000	      0.00000000	      0.00000000	      0.00000000
     22.50100000	   -281.70421647	   1592.23468303	    -12.96290584	      2.49178120	      0.00000000	      1.06970838	     -0.00000000	     16.74073554	     -0.00000000	      0.00000000	      0.00000000	      0.00000000	      0.00000000	      0.00000000	      0.00000000	      0.00000000	      0.00000000	      0.00000000
     22.50200000	   -278.96387553	   1603.84827454	    -12.90177611	      2.48866043	      0.00000000	      1.06977780	     -0.00000000	     16.88961954	     -0.00000000	      0.00000000	      0.00000000	      0.00000000	      0.00000000	      0.00000000	      0.00000000	      0.00000000	      0.00000000	      0.00000000
     22.50300000	   -276.22353458	   1615.46186604	    -12.84064639	      2.48553965	      0.00000000	      1.06984721	     -0.00000000	     17.03850353	     -0.00000000	      0.00000000	      0.00000000	      0.00000000	      0.00000000	      0.00000000	      0.00000000	      0.00000000	      0.00000000	      0.00000000
     22.50400000	   -272.70624043	   1626.54076127	    -12.74472730	      2.48227468	      0.00000000	      1.06991590	     -0.00000000	     17.18253232	     -0.00000000	      0.00000000	      0.00000000	      0.00000000	      0.00000000	      0.00000000	      0.00000000	      0.00000000	      0.00000000	      0.00000000
     22.50500000	   -268.80046968	   1637.35230836	    -12.63141354	      2.47893762	      0.00000000	      1.06998423	     -0.00000000	     17.32413351	     -0.00000000	      0.00000000	      0.00000000	      0.00000000	      0.00000000	      0.00000000	      0.00000000	      0.00000000	      0.00000000	      0.00000000
     22.50600000	   -264.89469894	   1648.16385545	    -12.51809978	      2.47560056	      0.00000000	      1.07005256	     -0.00000000	     17.46573470	     -0.00000000	      0.00000000	      0.00000000	      0.00000000	      0.00000000	      0.00000000	      0.00000000	      0.00000000	      0.00000000	      0.00000000
     22.50700000	   -260.61280238	   1658.67544548	    -12.38398483	      2.47219553	      0.00000000	      1.07011885	     -0.00000000	     17.60446089	     -0.00000000	      0.00000000	      0.00000000	      0.00000000	      0.00000000	      0.00000000	      0.00000000	      0.00000000	      0.00000000	      0.00000000
     22.50800000	   -255.57865421	   1668.58712138	    -12.20826751	      2.46865455	      0.00000000	      1.07018105	     -0.00000000	     17.73743709	     -0.00000000	      0.00000000	      0.00000000	      0.00000000	      0.00000000	      0.00000000	      0.00000000	      0.00000000	      0.00000000	      0.00000000
     22.50900000	   -250.54450603	   1678.49879727	    -12.03255019	      2.46511358	      0.00000000	      1.07024325	     -0.00000000	     17.87041330	     -0.00000000	      0.00000000	      0.00000000	      0.00000000	      0.00000000	      0.00000000	      0.00000000	      0.00000000	      0.00000000	      0.00000000
     22.51000000	   -245.51035786	   1688.41047317	    -11.85683287	      2.46157260	      0.00000000	      1.07030546	     -0.00000000	     18.00338950	     -0.00000000	      0.00000000	      0.00000000	      0.00000000	      0.00000000	      0.00000000	      0.00000000	      0.00000000	      0.00000000	      0.00000000
     22.51100000	   -239.41014804	   1697.30294179	    -11.60909069	      2.45784184	      0.00000000	      1.07035693	     -0.00000000	     18.12618340	     -0.00000000	      0.00000000	      0.00000000	      0.00000000	      0.00000000	      0.00000000	      0.00000000	      0.00000000	      0.00000000	      0.00000000
     22.51200000	   -233.30993822	   1706.19541040	    -11.36134851	      2.45411109	      0.00000000	      1.07040841	     -0.00000000	     18.24897730	     -0.00000000	      0.00000000	      0.00000000	      0.00000000	      0.00000000	      0.00000000	      0.00000000	      0.00000000	      0.00000000	      0.00000000
     22.51300000	   -227.20972840	   1715.08787902	    -11.11360633	      2.45038034	      0.00000000	      1.07045988	     -0.00000000	     18.37177120	     -0.00000000	      0.00000000	      0.00000000	      0.00000000	      0.00000000	      0.00000000	      0.00000000	      0.00000000	      0.00000000	      0.00000000
     22.51400000	   -220.45569627	   1723.21075730	    -10.81235296	      2.44653336	      0.00000000	      1.07050153	     -0.00000000	     18.48658016	     -0.00000000	      0.00000000	      0.00000000	      0.00000000	      0.00000000	      0.00000000	      0.00000000	      0.00000000	      0.00000000	      0.00000000
     22.51500000	   -213.37475298	   1730.94884042	    -10.48434400	      2.44262826	      0.00000000	      1.07053826	     -0.00000000	     18.59739665	     -0.00000000	      0.00000000	      0.00000000	      0.00000000	      0.00000000	      0.00000000	      0.00000000	      0.00000000	      0.00000000	      0.00000000
     22.51600000	   -206.29380969	   1738.68692355	    -10.15633503	      2.43872317	      0.00000000	      1.07057500	     -0.00000000	     18.70821314	     -0.00000000	      0.00000000	      0.00000000	      0.00000000	      0.00000000	      0.00000000	      0.00000000	      0.00000000	      0.00000000	      0.00000000
     22.51700000	   -198.92113182	   1745.99193093	     -9.79950476	      2.43476538	      0.00000000	      1.07060572	     -0.00000000	     18.81436179	     -0.00000000	      0.00000000	      0.00000000	      0.00000000	      0.00000000	      0.00000000	      0.00000000	      0.00000000	      0.00000000	      0.00000000
     22.51800000	   -190.96498478	   1752.43078685	     -9.38503188	      2.43070218	      0.00000000	      1.07062441	     -0.00000000	     18.91117476	     -0.00000000	      0.00000000	      0.00000000	      0.00000000	      0.00000000	      0.00000000	      0.00000000	      0.00000000	      0.00000000	      0.00000000
     22.51900000	   -183.00883774	   1758.86964277	     -8.97055900	      2.42663899	      0.00000000	      1.07064311	     -0.00000000	     19.00798772	     -0.00000000	      0.00000000	      0.00000000	      0.00000000	      0.00000000	      0.00000000	      0.00000000	      0.00000000	      0.00000000	      0.00000000
     22.52000000	   -175.05269070	   1765.30849869	     -8.55608612	      2.42257580	      0.00000000	      1.07066181	     -0.00000000	     19.10480069	     -0.00000000	      0.00000000	      0.00000000	      0.00000000	      0.00000000	      0.00000000	      0.00000000	      0.00000000	      0.00000000	      0.00000000
     22.52100000	   -166.34389185	   1770.29992557	     -8.05152094	      2.41837112	      0.00000000	      1.07066000	     -0.00000000	     19.18539141	     -0.00000000	      0.00000000	      0.00000000	      0.00000000	      0.00000000	      0.00000000	      0.00000000	      0.00000000	      0.00000000	      0.00000000
     22.52200000	   -157.63509299	   1775.29135245	     -7.54695576	      2.41416643	      0.00000000	      1.07065819	     -0.00000000	     19.26598214	     -0.00000000	      0.00000000	      0.00000000	      0.00000000	      0.00000000	      0.00000000	      0.00000000	      0.00000000	      0.00000000	      0.00000000
     22.52300000	   -148.92629414	   1780.28277934	     -7.04239058	      2.40996175	      0.00000000	      1.07065638	     -0.00000000	     19.34657286	     -0.00000000	      0.00000000	      0.00000000	      0.00000000	      0.00000000	      0.00000000	      0.00000000	      0.00000000	      0.00000000	      0.00000000
     22.52400000	   -139.80652669	   1784.21227701	     -6.47730958	      2.40567381	      0.00000000	      1.07063987	     -0.00000000	     19.41478601	     -0.00000000	      0.00000000	      0.00000000	      0.00000000	      0.00000000	      0.00000000	      0.00000000	      0.00000000	      0.00000000	      0.00000000
     22.52500000	   -130.48127494	   1787.61081008	     -5.88197068	      2.40134424	      0.00000000	      1.07061601	     -0.00000000	     19.47681037	     -0.00000000	      0.00000000	      0.00000000	      0.00000000	      0.00000000	      0.00000000	      0.00000000	      0.00000000	      0.00000000	      0.00000000
     22.52600000	   -121.15602320	   1791.00934315	     -5.28663177	      2.39701467	      0.00000000	      1.07059215	     -0.00000000	     19.53883473	     -0.00000000	      0.00000000	      0.00000000	      0.00000000	      0.00000000	      0.00000000	      0.00000000	      0.00000000	      0.00000000	      0.00000000
     22.52700000	   -111.67409291	   1793.83121548	     -4.66187139	      2.39264891	      0.00000000	      1.07056074	     -0.00000000	     19.59387652	     -0.00000000	      0.00000000	      0.00000000	      0.00000000	      0.00000000	      0.00000000	      0.00000000	      0.00000000	      0.00000000	      0.00000000
